# xmcd
#
# Track frame offsets:
#	150
#	12927
#	25777
#	36377
#	46875
#	60905
#	72477
#	85267
#	96880
#	107025
#	117765
#	130030
#	140522
#	152680
#	163532
#	174750
#	185825
#	198712
#
# Disc length: 2820 seconds
#
# Revision: 0
# Processed by: cddbd v1.4PL0 Copyright (c) Steve Scherf et al.
# Submitted via: dBpowerAMP V4.0
#
DISCID=ee0b0212
DTITLE=Jimmy Reed - Big Boss Man
DYEAR=1900
DGENRE=Blues
TTITLE0=Big Boss Man
TTITLE1=You Got Me Dizzy
TTITLE2=Take Out Some Insurance
TTITLE3=Found Love
TTITLE4=You Don't Have To Go
TTITLE5=Hush, Hush
TTITLE6=Caress Me Baby
TTITLE7=Close Together
TTITLE8=Ain't That Loving You Baby
TTITLE9=Baby What You Want Me To Do
TTITLE10=Honest I Do
TTITLE11=Going To New York
TTITLE12=Bright Lights, Big City
TTITLE13=Aw Shucks, Hush Your Mouth
TTITLE14=Good Lover
TTITLE15=Down In Virginia
TTITLE16=The Sun Is Shining
TTITLE17=Shame, Shame, Shame
EXTD=
EXTT0=
EXTT1=
EXTT2=
EXTT3=
EXTT4=
EXTT5=
EXTT6=
EXTT7=
EXTT8=
EXTT9=
EXTT10=
EXTT11=
EXTT12=
EXTT13=
EXTT14=
EXTT15=
EXTT16=
EXTT17=
PLAYORDER=
